{"title":"Un sacco bello (1980) - DVDRip x265 HEVC - ITA (ENG SUBS) [BRSHN","uid":15777709,"size":892525575,"categoryP":"video","categoryS":"movies_dvdr","magnet":"?xt=urn:btih:999e4edd802d772b3ebaff6f82dad6c89ee30813&amp;dn=Un+sacco+bello+%281980%29+-+DVDRip+x265+HEVC+-+ITA+%28ENG+SUBS%29+%5BBRSHN&amp;tr=udp%3A%2F%2Ftracker.leechers-paradise.org%3A6969&amp;tr=udp%3A%2F%2Fzer0day.ch%3A1337&amp;tr=udp%3A%2F%2Fopen.demonii.com%3A1337&amp;tr=udp%3A%2F%2Ftracker.coppersurfer.tk%3A6969&amp;tr=udp%3A%2F%2Fexodus.desync.com%3A6969","seeders":0,"leechers":1,"uploader":"BRSHNKV","files":2,"time":1473251739,"description":"Three stories, three characters all played by Verdone. The first is an awkward young man, who meet a Spanish tourist in Rome. The second has planned a trip towards East with a suitcase full of stockings and biro pens. The last one is a hippy whose father tries to convince him to get back home.\r\n\r\nFormat                                   : MPEG-4\r\nFormat profile                           : Base Media / Version 2\r\nCodec ID                                 : mp42\r\nFile size                                : 851 MiB\r\nDuration                                 : 1h 33mn\r\nOverall bit rate mode                    : Variable\r\nOverall bit rate                         : 1 276 Kbps\r\nMovie name                               : Un sacco bello x265 HEVC [BRSHNKV]\r\nEncoded date                             : UTC 2016-09-06 01:13:56\r\nTagged date                              : UTC 2016-09-06 01:13:56\r\nWriting application                      : HandBrake 20160211184813-ffd8cb1-master 2016021301\r\n\r\nVideo\r\nID                                       : 1\r\nFormat                                   : HEVC\r\nFormat/Info                              : High Efficiency Video Coding\r\nFormat profile                           : Main   @Main\r\nCodec ID                                 : hev1\r\nCodec ID/Info                            : High Efficiency Video Coding\r\nDuration                                 : 1h 33mn\r\nBit rate                                 : 1 102 Kbps\r\nWidth                                    : 720 pixels\r\nHeight                                   : 576 pixels\r\nDisplay aspect ratio                     : 16:9\r\nFrame rate mode                          : Constant\r\nFrame rate                               : 50.000 fps\r\nColor space                              : YUV\r\nChroma subsampling                       : 4:2:0\r\nBit depth                                : 10 bits\r\nBits/(Pixel*Frame)                       : 0.053\r\nStream size                              : 735 MiB (86%)\r\nWriting library                          : x265 1.9:[Mac OS X][clang 7.0.2][64 bit] 10bit\r\nEncoded date                             : UTC 2016-09-06 01:13:56\r\nTagged date                              : UTC 2016-09-06 01:13:56\r\nColor range                              : Limited\r\nColor primaries                          : BT.601 PAL\r\nTransfer characteristics                 : BT.709\r\nMatrix coefficients                      : BT.601\r\n\r\nAudio\r\nID                                       : 2\r\nFormat                                   : AAC\r\nFormat/Info                              : Advanced Audio Codec\r\nFormat profile                           : LC\r\nCodec ID                                 : 40\r\nDuration                                 : 1h 33mn\r\nBit rate mode                            : Variable\r\nBit rate                                 : 164 Kbps\r\nChannel(s)                               : 2 channels\r\nChannel(s)_Original                      : 1 channel\r\nChannel positions                        : Front: C\r\nSampling rate                            : 48.0 KHz\r\nCompression mode                         : Lossy\r\nStream size                              : 110 MiB (13%)\r\nTitle                                    : Mono / Mono\r\nLanguage                                 : Italian\r\nEncoded date                             : UTC 2016-09-06 01:13:56\r\nTagged date                              : UTC 2016-09-06 01:13:56","torrent":{"xt":"urn:btih:999e4edd802d772b3ebaff6f82dad6c89ee30813","amp;dn":"Un+sacco+bello+%281980%29+-+DVDRip+x265+HEVC+-+ITA+%28ENG+SUBS%29+%5BBRSHN","amp;tr":["udp%3A%2F%2Ftracker.leechers-paradise.org%3A6969","udp%3A%2F%2Fzer0day.ch%3A1337","udp%3A%2F%2Fopen.demonii.com%3A1337","udp%3A%2F%2Ftracker.coppersurfer.tk%3A6969","udp%3A%2F%2Fexodus.desync.com%3A6969"],"infoHash":"999e4edd802d772b3ebaff6f82dad6c89ee30813","infoHashBuffer":{"type":"Buffer","data":[153,158,78,221,128,45,119,43,62,186,255,111,130,218,214,200,158,227,8,19]},"announce":[],"urlList":[]}}